<svg width="15" height="15" viewBox="0 0 15 15" fill="none" xmlns="http://www.w3.org/2000/svg">
<path d="M3.12718 0.0453835C1.74229 0.281517 0.612676 1.25796 0.175509 2.60456C-0.0031872 3.14384 3.79429e-06 3.0896 3.79429e-06 7.49637C3.79429e-06 11.9031 -0.0031872 11.8489 0.175509 12.3882C0.37016 12.9817 0.65735 13.454 1.1009 13.8943C1.6689 14.4655 2.35815 14.8197 3.14314 14.9473C3.57073 15.0176 11.427 15.0176 11.8546 14.9473C12.6396 14.8197 13.3288 14.4655 13.8968 13.8943C14.468 13.3263 14.8222 12.6371 14.9498 11.8521C15.02 11.4245 15.02 3.56825 14.9498 3.14065C14.8222 2.35567 14.468 1.66641 13.8968 1.09841C13.3288 0.527225 12.6396 0.173023 11.8673 0.0453835C11.6089 0.00390053 11.0026 -0.00248146 7.46694 0.000709534C4.2919 0.00390053 3.31226 0.0134735 3.12718 0.0453835ZM12.062 2.16421C12.5981 2.37162 12.9555 2.92367 12.9172 3.48528C12.8757 4.06285 12.5087 4.52555 11.9567 4.69467C11.4174 4.85741 10.8175 4.64361 10.4888 4.17773C9.97507 3.44061 10.3229 2.4163 11.1845 2.13549C11.4334 2.05252 11.8099 2.06529 12.062 2.16421ZM8.20087 3.49804C8.52316 3.55229 9.03053 3.71503 9.29857 3.84905C10.2814 4.34366 11.0441 5.23714 11.3727 6.2806C11.6152 7.04324 11.6152 7.94949 11.3727 8.71214C11.0441 9.75559 10.2814 10.6523 9.30177 11.1437C8.4051 11.5936 7.23081 11.6798 6.27032 11.367C5.22048 11.0256 4.34295 10.2725 3.85154 9.29609C3.71752 9.03124 3.55159 8.52068 3.49734 8.20158C3.43033 7.81227 3.43033 7.18046 3.49734 6.79115C3.55159 6.47206 3.71752 5.9615 3.85154 5.69664C4.49612 4.41705 5.79805 3.53953 7.19571 3.44699C7.57224 3.42146 7.83072 3.43422 8.20087 3.49804Z" fill="#545454"/>
<path d="M7.10039 4.78391C5.99631 4.95622 5.14112 5.72844 4.84755 6.81019C4.79011 7.01442 4.77734 7.15482 4.77734 7.49626C4.77734 7.83769 4.79011 7.9781 4.84755 8.18232C5.1124 9.16515 5.83356 9.88632 6.8132 10.148C7.17378 10.2469 7.82156 10.2469 8.18533 10.148C9.14263 9.89589 9.8989 9.13962 10.151 8.18232C10.2499 7.81536 10.2499 7.16758 10.151 6.81019C9.88613 5.82736 9.14901 5.09343 8.18533 4.84773C7.88857 4.77114 7.37482 4.74242 7.10039 4.78391Z" fill="#545454"/>
</svg>
