<svg width="15" height="15" viewBox="0 0 15 15" fill="none" xmlns="http://www.w3.org/2000/svg">
<path d="M6.75668 0.0089159C5.36082 0.158472 4.08226 0.662859 2.94152 1.51621C2.5691 1.7948 1.80372 2.56017 1.52513 2.9326C0.76269 3.95017 0.293493 5.03812 0.0823546 6.27563C0.00317764 6.73309 -0.0261472 7.78879 0.0266375 8.26678C0.161532 9.52188 0.572079 10.6568 1.25828 11.6743L1.41077 11.9001L0.938639 13.296C0.680581 14.0643 0.472374 14.6948 0.475307 14.6977C0.478239 14.7036 1.11459 14.5042 1.88876 14.2549C2.66294 14.0056 3.32275 13.8004 3.35207 13.8004C3.3814 13.8004 3.47523 13.8414 3.55734 13.8942C4.49574 14.4807 5.58075 14.8502 6.73322 14.9734C7.21121 15.0261 8.26691 14.9968 8.72437 14.9176C9.96188 14.7065 11.0528 14.2373 12.0674 13.4749C12.4398 13.1963 13.2052 12.4309 13.4838 12.0585C14.258 11.0233 14.7301 9.9119 14.9442 8.62454C15.0204 8.16121 15.0204 6.82987 14.9442 6.36653C14.7301 5.07917 14.258 3.96776 13.4838 2.9326C13.2052 2.56017 12.4398 1.7948 12.0674 1.51621C11.0528 0.756699 9.96775 0.287501 8.72437 0.0734301C8.43992 0.0235786 8.21999 0.0089159 7.62176 0.0030508C7.21121 -0.00281429 6.82119 0.000118256 6.75668 0.0089159ZM5.14382 3.48977C5.22006 3.52203 5.26405 3.57481 5.33149 3.70971C5.50158 4.04401 6.1262 5.58063 6.1262 5.66274C6.1262 5.80056 6.01183 5.98238 5.72738 6.30788C5.57782 6.47503 5.44 6.64219 5.4224 6.67151C5.34322 6.82107 5.41947 7.02048 5.71272 7.43689C6.35493 8.34889 7.08805 8.98817 8.01178 9.43097C8.7449 9.7858 8.83581 9.76234 9.30794 9.1084C9.6481 8.63627 9.783 8.52484 9.97948 8.56883C10.1789 8.61281 11.8885 9.44564 11.9618 9.53654C12.0674 9.66264 11.9736 10.3547 11.8035 10.6861C11.5601 11.167 10.8064 11.6098 10.1202 11.6743C9.40764 11.7447 7.70974 11.1523 6.70389 10.4837C5.68632 9.80633 4.63943 8.69785 3.8242 7.43982C3.41365 6.80641 3.16439 6.07329 3.16439 5.50145C3.16439 4.88563 3.355 4.36365 3.75089 3.89738C3.9327 3.67745 4.10279 3.55722 4.31686 3.4927C4.48694 3.43699 5.01479 3.43699 5.14382 3.48977Z" fill="#545454"/>
</svg>
