<svg width="24" height="24" viewBox="0 0 24 24" fill="none" xmlns="http://www.w3.org/2000/svg">
<path d="M20.7091 8.11998V17.53C20.7091 19.99 18.6991 22 16.2391 22H7.75906C5.29906 22 3.28906 19.99 3.28906 17.53V8.11998C3.28906 6.40998 4.24906 4.91998 5.65906 4.16998C6.14906 3.90998 6.75906 4.25998 6.75906 4.81998C6.75906 6.40998 8.05906 7.70998 9.64906 7.70998H14.3491C15.9391 7.70998 17.2391 6.40998 17.2391 4.81998C17.2391 4.25998 17.8391 3.90998 18.3391 4.16998C19.7491 4.91998 20.7091 6.40998 20.7091 8.11998Z" fill="#292D32"/>
<path d="M14.3517 2H9.65172C8.61172 2 7.76172 2.84 7.76172 3.88V4.82C7.76172 5.86 8.60172 6.7 9.64172 6.7H14.3517C15.3917 6.7 16.2317 5.86 16.2317 4.82V3.88C16.2417 2.84 15.3917 2 14.3517 2Z" fill="#292D32"/>
</svg>
