<svg width="18" height="19" viewBox="0 0 18 19" fill="none" xmlns="http://www.w3.org/2000/svg">
<path d="M0.985466 0.0644035C0.605357 0.201666 0.285081 0.490267 0.102066 0.859816L0 1.07099V8.25081V15.4306L0.112625 15.6594C0.175976 15.7861 0.274523 15.9445 0.330835 16.0149C0.577201 16.3105 0.686306 16.3563 3.24852 17.2115L5.66643 18.021L6.03598 18.0104C6.37385 17.9999 6.43016 17.9893 6.64485 17.8837C7.07072 17.6726 7.37691 17.2819 7.47546 16.8279C7.49658 16.7258 7.51418 16.4443 7.51418 16.2049V15.765H8.80936C9.84762 15.765 10.1468 15.7544 10.3122 15.7122C10.9211 15.5573 11.4983 15.0892 11.7658 14.5296C12.0121 14.0193 12.0227 13.9067 12.0121 11.9815L12.0016 10.2921L11.9136 10.1338C11.8643 10.0493 11.7552 9.92962 11.6742 9.86979C11.5335 9.77476 11.4948 9.7642 11.2449 9.7642C10.995 9.7642 10.9563 9.77476 10.8155 9.86979C10.7345 9.92962 10.6254 10.0493 10.5762 10.1338L10.4882 10.2921L10.4706 12.0167L10.453 13.7413L10.372 13.875C10.2735 14.0299 10.1151 14.1566 9.94616 14.2129C9.86522 14.2375 9.44287 14.2516 8.6721 14.2516H7.51418L7.50714 8.45142L7.49658 2.65477L7.41915 2.4612C7.26077 2.07405 6.91234 1.72562 6.54631 1.58132L6.37033 1.51445H8.09138C9.28449 1.51093 9.85114 1.52501 9.94616 1.54964C10.1116 1.59892 10.3122 1.76081 10.3931 1.90863C10.4459 2.00718 10.4565 2.17964 10.4706 3.37627L10.4882 4.73129L10.5867 4.89671C10.7275 5.13955 10.9457 5.25922 11.2449 5.25922C11.4948 5.2557 11.625 5.20642 11.7869 5.04453C12.0051 4.8228 12.0016 4.85447 12.0121 3.41147C12.0227 1.89808 12.0051 1.72562 11.7658 1.23289C11.4983 0.673281 10.9211 0.205185 10.3122 0.0503254C10.1327 0.00457191 9.50622 -0.0024662 5.63123 -0.0024662C1.40781 0.00105286 1.15088 0.00457191 0.985466 0.0644035Z" fill="#292D32"/>
<path d="M13.9915 3.77806C13.812 3.83789 13.6606 3.97163 13.5551 4.16872C13.4811 4.30246 13.4776 4.35878 13.4671 5.53078L13.453 6.75205L11.827 6.76261L10.1974 6.77317L10.0531 6.87523C9.66951 7.1392 9.62375 7.74456 9.96163 8.06483C10.1798 8.26896 10.1834 8.26896 11.8903 8.26896H13.4565L13.4671 9.47616L13.4776 10.6834L13.5691 10.8558C13.6958 11.1092 13.8929 11.2359 14.178 11.2535C14.5898 11.2817 14.5229 11.3309 16.2334 9.6275C17.0887 8.77577 17.8348 8.01556 17.8841 7.93813C17.9967 7.77975 18.0354 7.44188 17.965 7.22367C17.9298 7.11808 17.5919 6.75909 16.332 5.49558C15.431 4.59107 14.6848 3.86956 14.6109 3.83085C14.4349 3.73934 14.1815 3.71822 13.9915 3.77806Z" fill="#292D32"/>
</svg>
