<svg width="8" height="6" viewBox="0 0 8 6" fill="none" xmlns="http://www.w3.org/2000/svg">
<path d="M7.23741 0.0436115C7.19597 0.0654178 6.21032 1.03799 5.04586 2.20245C2.77363 4.47686 2.84995 4.40708 2.70821 4.33076C2.67332 4.31331 2.22628 3.875 1.70947 3.35819C1.17521 2.82175 0.734724 2.39653 0.684569 2.37036C0.573356 2.31148 0.368376 2.30712 0.265886 2.36164C0.0434598 2.47939 -0.0612111 2.75851 0.0369179 2.97222C0.0848921 3.07689 2.50323 5.50176 2.61008 5.55192C2.71475 5.60207 2.9568 5.58463 3.04185 5.52139C3.07674 5.4974 4.18232 4.39836 5.49725 3.08125L7.88942 0.686902L7.90468 0.582231C7.93957 0.335818 7.86107 0.159185 7.67572 0.0566955C7.5427 -0.0130854 7.35516 -0.0196271 7.23741 0.0436115Z" fill="#CB0B13"/>
</svg>
