<svg width="20" height="19" viewBox="0 0 20 19" fill="none" xmlns="http://www.w3.org/2000/svg">
<path d="M4.26107 3.03347C3.90647 3.11971 3.64327 3.36848 3.54822 3.69022C3.51898 3.80632 3.5007 4.06835 3.5007 4.4697V5.0767H2.45885H1.417V5.57423V6.07177H0.868655H0.320312V6.58589V7.10001H0.868655H1.417V7.59755V8.09509H2.45885H3.5007L3.50801 11.2694C3.51898 14.8152 3.5007 14.5465 3.78218 14.8284C3.97959 15.0308 4.22451 15.127 4.54255 15.127C4.9666 15.1236 5.28464 14.9478 5.46011 14.6128L5.54785 14.447V9.07358V3.70018L5.46011 3.53433C5.36872 3.35522 5.13111 3.13962 4.94833 3.06996C4.7692 3.00031 4.45116 2.98372 4.26107 3.03347Z" fill="#1D1D1B"/>
<path d="M7.41952 3.02021C7.12707 3.07659 6.8529 3.28556 6.7213 3.55091C6.64819 3.70017 6.64453 3.73998 6.64453 9.07358C6.64453 14.2281 6.64819 14.4536 6.71399 14.583C6.88946 14.9346 7.22212 15.127 7.64983 15.127C7.96787 15.127 8.21279 15.0308 8.4102 14.8284C8.69899 14.5432 8.6734 15.0772 8.6734 9.07358V3.70017L8.59663 3.5476C8.39192 3.14956 7.90206 2.93065 7.41952 3.02021Z" fill="#1D1D1B"/>
<path d="M10.5472 3.02014C10.2255 3.09311 10.0135 3.24901 9.85626 3.51768L9.77218 3.66694L9.76122 9.03703L9.75391 14.4071L9.84164 14.5796C10.0098 14.9146 10.3022 15.097 10.7044 15.1203C11.1686 15.1468 11.4903 14.9843 11.6877 14.626L11.8011 14.4204V9.0901C11.8011 3.14618 11.8193 3.59397 11.5452 3.30871C11.3149 3.07321 10.8798 2.94717 10.5472 3.02014Z" fill="#1D1D1B"/>
<path d="M13.6186 3.03347C13.2567 3.12303 12.9715 3.39834 12.8947 3.72671C12.8692 3.84612 12.8582 5.5278 12.8655 9.17309C12.8765 15.0606 12.8545 14.5432 13.1397 14.8284C13.3371 15.0308 13.582 15.127 13.9 15.127C14.346 15.127 14.697 14.9114 14.8542 14.5432C14.92 14.3873 14.9236 14.1982 14.9236 9.057V3.73334L14.8359 3.56086C14.7445 3.3718 14.4923 3.13962 14.3095 3.06996C14.1267 3.00031 13.8087 2.98372 13.6186 3.03347Z" fill="#1D1D1B"/>
<path d="M16.7789 3.02021C16.4864 3.07659 16.2123 3.28556 16.0807 3.55091C16.0076 3.70017 16.0039 3.73998 16.0039 9.07358C16.0039 14.2281 16.0076 14.4536 16.0734 14.583C16.2488 14.9346 16.5815 15.127 17.0092 15.127C17.4333 15.127 17.7659 14.9412 17.9524 14.5996L18.0328 14.447L18.0437 10.2743L18.0511 6.10494H18.5263H19.0015V5.59082V5.07669H18.5299H18.0547L18.0437 4.38678C18.0328 3.76983 18.0255 3.68359 17.956 3.5476C17.7513 3.14956 17.2614 2.93065 16.7789 3.02021Z" fill="#1D1D1B"/>
<path d="M18.5 1L2 18" stroke="#1D1D1B"/>
<path d="M19.5 1L3 18" stroke="white"/>
<path d="M2 1L18.5 18" stroke="#1D1D1B"/>
<path d="M1 1L17.5 18" stroke="white"/>
</svg>
