<svg width="22" height="22" viewBox="0 0 22 22" fill="none" xmlns="http://www.w3.org/2000/svg">
<path d="M9.45867 5.6575C9.18867 5.4475 8.81369 5.4475 8.54369 5.6575C7.11869 6.745 2.91118 10.2925 2.93368 14.425C2.93368 17.77 5.65619 20.5 9.00869 20.5C12.3612 20.5 15.0837 17.7775 15.0837 14.4325C15.0912 10.36 10.8762 6.7525 9.45867 5.6575Z" stroke="#292D32" stroke-width="1.5" stroke-miterlimit="10"/>
<path d="M15.3417 4.10258H15.8648C16.0324 4.10258 16.1705 4.07428 16.2792 4.01766C16.3879 3.95879 16.4683 3.87726 16.5204 3.7731C16.5747 3.66667 16.6019 3.54325 16.6019 3.40285C16.6019 3.27604 16.577 3.16395 16.5272 3.06658C16.4796 2.96694 16.406 2.88995 16.3064 2.8356C16.2067 2.77899 16.0811 2.75068 15.9293 2.75068C15.8093 2.75068 15.6984 2.77446 15.5965 2.82201C15.4946 2.86957 15.413 2.93637 15.3519 3.02242C15.2908 3.10847 15.2602 3.21264 15.2602 3.33492H14.2785C14.2785 3.06318 14.351 2.82654 14.4959 2.625C14.6431 2.42346 14.8401 2.26608 15.087 2.15285C15.3338 2.03963 15.6055 1.98302 15.9022 1.98302C16.2373 1.98302 16.5306 2.03736 16.7819 2.14606C17.0333 2.25249 17.2292 2.40987 17.3696 2.61821C17.51 2.82654 17.5802 3.08469 17.5802 3.39266C17.5802 3.54891 17.5439 3.70063 17.4715 3.84783C17.399 3.99275 17.2948 4.12409 17.159 4.24185C17.0254 4.35734 16.8623 4.45018 16.6698 4.52038C16.4774 4.58832 16.2611 4.62228 16.0211 4.62228H15.3417V4.10258ZM15.3417 4.84647V4.34035H16.0211C16.2905 4.34035 16.5272 4.37092 16.731 4.43207C16.9348 4.49321 17.1058 4.58152 17.2439 4.69701C17.382 4.81024 17.4862 4.94497 17.5564 5.10122C17.6266 5.25521 17.6617 5.42618 17.6617 5.61413C17.6617 5.84511 17.6175 6.05118 17.5292 6.23234C17.4409 6.41123 17.3163 6.56295 17.1556 6.6875C16.9971 6.81205 16.8114 6.90716 16.5985 6.97283C16.3856 7.03623 16.1535 7.06793 15.9022 7.06793C15.6938 7.06793 15.4889 7.03963 15.2874 6.98302C15.0881 6.92414 14.9069 6.83696 14.7439 6.72147C14.5831 6.60371 14.454 6.45652 14.3567 6.27989C14.2615 6.101 14.214 5.88927 14.214 5.6447H15.1957C15.1957 5.77151 15.2274 5.88474 15.2908 5.98437C15.3542 6.08401 15.4413 6.16214 15.5523 6.21875C15.6655 6.27536 15.7912 6.30367 15.9293 6.30367C16.0856 6.30367 16.2192 6.27536 16.3302 6.21875C16.4434 6.15987 16.5294 6.07835 16.5883 5.97418C16.6495 5.86775 16.68 5.74434 16.68 5.60394C16.68 5.42278 16.6472 5.27785 16.5815 5.16916C16.5159 5.0582 16.4219 4.97668 16.2996 4.92459C16.1773 4.87251 16.0324 4.84647 15.8648 4.84647H15.3417ZM21.663 4.09239V4.94837C21.663 5.31975 21.6234 5.64017 21.5442 5.90965C21.4649 6.17686 21.3505 6.39651 21.2011 6.56861C21.0539 6.73845 20.8784 6.86413 20.6746 6.94565C20.4708 7.02717 20.2443 7.06793 19.9952 7.06793C19.796 7.06793 19.6103 7.04303 19.4382 6.99321C19.2661 6.94112 19.111 6.86073 18.9728 6.75204C18.837 6.64334 18.7192 6.50634 18.6196 6.34103C18.5222 6.17346 18.4475 5.97418 18.3954 5.74321C18.3433 5.51223 18.3173 5.24728 18.3173 4.94837V4.09239C18.3173 3.72101 18.3569 3.40285 18.4361 3.13791C18.5177 2.8707 18.632 2.65217 18.7792 2.48234C18.9287 2.3125 19.1053 2.18795 19.3091 2.1087C19.5129 2.02717 19.7394 1.98641 19.9885 1.98641C20.1877 1.98641 20.3723 2.01245 20.5421 2.06454C20.7142 2.11436 20.8693 2.19248 21.0075 2.29891C21.1456 2.40534 21.2634 2.54235 21.3607 2.70992C21.4581 2.87523 21.5328 3.07337 21.5849 3.30435C21.637 3.53306 21.663 3.79574 21.663 4.09239ZM20.6814 5.07745V3.95992C20.6814 3.78102 20.6712 3.62477 20.6508 3.49117C20.6327 3.35756 20.6044 3.24434 20.5659 3.15149C20.5274 3.05639 20.4798 2.97939 20.4232 2.92052C20.3666 2.86164 20.3021 2.81861 20.2296 2.79144C20.1572 2.76427 20.0768 2.75068 19.9885 2.75068C19.8775 2.75068 19.779 2.77219 19.6929 2.81522C19.6091 2.85824 19.5378 2.92731 19.4789 3.02242C19.4201 3.11526 19.3748 3.23981 19.3431 3.39606C19.3136 3.55005 19.2989 3.738 19.2989 3.95992V5.07745C19.2989 5.25634 19.308 5.41372 19.3261 5.54959C19.3465 5.68546 19.3759 5.80208 19.4144 5.89946C19.4552 5.99457 19.5027 6.07269 19.5571 6.13383C19.6137 6.19271 19.6782 6.23573 19.7507 6.26291C19.8254 6.29008 19.9069 6.30367 19.9952 6.30367C20.1039 6.30367 20.2002 6.28216 20.284 6.23913C20.37 6.19384 20.4425 6.12364 20.5014 6.02853C20.5625 5.93116 20.6078 5.80435 20.6372 5.6481C20.6667 5.49185 20.6814 5.30163 20.6814 5.07745Z" fill="#333333"/>
</svg>
