<svg width="18" height="18" viewBox="0 0 18 18" fill="none" xmlns="http://www.w3.org/2000/svg">
<path d="M6 4.3125C5.6925 4.3125 5.4375 4.0575 5.4375 3.75V1.5C5.4375 1.1925 5.6925 0.9375 6 0.9375C6.3075 0.9375 6.5625 1.1925 6.5625 1.5V3.75C6.5625 4.0575 6.3075 4.3125 6 4.3125Z" fill="#292D32"/>
<path d="M12 4.3125C11.6925 4.3125 11.4375 4.0575 11.4375 3.75V1.5C11.4375 1.1925 11.6925 0.9375 12 0.9375C12.3075 0.9375 12.5625 1.1925 12.5625 1.5V3.75C12.5625 4.0575 12.3075 4.3125 12 4.3125Z" fill="#292D32"/>
<path d="M6.375 10.8747C6.2775 10.8747 6.18 10.8523 6.09 10.8148C5.9925 10.7773 5.9175 10.7247 5.8425 10.6572C5.7075 10.5147 5.625 10.3272 5.625 10.1247C5.625 10.0272 5.6475 9.92974 5.685 9.83974C5.7225 9.74974 5.775 9.66725 5.8425 9.59225C5.9175 9.52475 5.9925 9.47224 6.09 9.43474C6.36 9.32224 6.6975 9.38225 6.9075 9.59225C7.0425 9.73475 7.125 9.92975 7.125 10.1247C7.125 10.1697 7.1175 10.2223 7.11 10.2748C7.1025 10.3198 7.0875 10.3647 7.065 10.4097C7.05 10.4547 7.0275 10.4997 6.9975 10.5447C6.975 10.5822 6.9375 10.6197 6.9075 10.6572C6.765 10.7922 6.57 10.8747 6.375 10.8747Z" fill="#292D32"/>
<path d="M9 10.8761C8.9025 10.8761 8.805 10.8536 8.715 10.8161C8.6175 10.7786 8.5425 10.7261 8.4675 10.6586C8.3325 10.5161 8.25 10.3286 8.25 10.1261C8.25 10.0286 8.2725 9.93112 8.31 9.84112C8.3475 9.75112 8.4 9.66863 8.4675 9.59363C8.5425 9.52613 8.6175 9.47362 8.715 9.43612C8.985 9.31612 9.3225 9.38363 9.5325 9.59363C9.6675 9.73613 9.75 9.93113 9.75 10.1261C9.75 10.1711 9.7425 10.2236 9.735 10.2761C9.7275 10.3211 9.7125 10.3661 9.69 10.4111C9.675 10.4561 9.6525 10.5011 9.6225 10.5461C9.6 10.5836 9.5625 10.6211 9.5325 10.6586C9.39 10.7936 9.195 10.8761 9 10.8761Z" fill="#292D32"/>
<path d="M11.625 10.8761C11.5275 10.8761 11.43 10.8536 11.34 10.8161C11.2425 10.7786 11.1675 10.7261 11.0925 10.6586C11.0625 10.6211 11.0325 10.5836 11.0025 10.5461C10.9725 10.5011 10.95 10.4561 10.935 10.4111C10.9125 10.3661 10.8975 10.3211 10.89 10.2761C10.8825 10.2236 10.875 10.1711 10.875 10.1261C10.875 9.93113 10.9575 9.73613 11.0925 9.59363C11.1675 9.52613 11.2425 9.47362 11.34 9.43612C11.6175 9.31612 11.9475 9.38363 12.1575 9.59363C12.2925 9.73613 12.375 9.93113 12.375 10.1261C12.375 10.1711 12.3675 10.2236 12.36 10.2761C12.3525 10.3211 12.3375 10.3661 12.315 10.4111C12.3 10.4561 12.2775 10.5011 12.2475 10.5461C12.225 10.5836 12.1875 10.6211 12.1575 10.6586C12.015 10.7936 11.82 10.8761 11.625 10.8761Z" fill="#292D32"/>
<path d="M6.375 13.4984C6.2775 13.4984 6.18 13.4759 6.09 13.4384C6 13.4009 5.9175 13.3484 5.8425 13.2809C5.7075 13.1384 5.625 12.9434 5.625 12.7484C5.625 12.6509 5.6475 12.5534 5.685 12.4634C5.7225 12.3659 5.775 12.2834 5.8425 12.2159C6.12 11.9384 6.63 11.9384 6.9075 12.2159C7.0425 12.3584 7.125 12.5534 7.125 12.7484C7.125 12.9434 7.0425 13.1384 6.9075 13.2809C6.765 13.4159 6.57 13.4984 6.375 13.4984Z" fill="#292D32"/>
<path d="M9 13.4984C8.805 13.4984 8.61 13.4159 8.4675 13.2809C8.3325 13.1384 8.25 12.9434 8.25 12.7484C8.25 12.6509 8.2725 12.5534 8.31 12.4634C8.3475 12.3659 8.4 12.2834 8.4675 12.2159C8.745 11.9384 9.255 11.9384 9.5325 12.2159C9.6 12.2834 9.6525 12.3659 9.69 12.4634C9.7275 12.5534 9.75 12.6509 9.75 12.7484C9.75 12.9434 9.6675 13.1384 9.5325 13.2809C9.39 13.4159 9.195 13.4984 9 13.4984Z" fill="#292D32"/>
<path d="M11.625 13.5007C11.43 13.5007 11.235 13.4182 11.0925 13.2832C11.025 13.2157 10.9725 13.1332 10.935 13.0357C10.8975 12.9457 10.875 12.8482 10.875 12.7507C10.875 12.6532 10.8975 12.5557 10.935 12.4657C10.9725 12.3682 11.025 12.2857 11.0925 12.2182C11.265 12.0457 11.5275 11.9632 11.7675 12.0157C11.82 12.0232 11.865 12.0382 11.91 12.0607C11.955 12.0757 12 12.0982 12.045 12.1282C12.0825 12.1507 12.12 12.1882 12.1575 12.2182C12.2925 12.3607 12.375 12.5557 12.375 12.7507C12.375 12.9457 12.2925 13.1407 12.1575 13.2832C12.015 13.4182 11.82 13.5007 11.625 13.5007Z" fill="#292D32"/>
<path d="M15.375 7.37891H2.625C2.3175 7.37891 2.0625 7.12391 2.0625 6.81641C2.0625 6.50891 2.3175 6.25391 2.625 6.25391H15.375C15.6825 6.25391 15.9375 6.50891 15.9375 6.81641C15.9375 7.12391 15.6825 7.37891 15.375 7.37891Z" fill="#292D32"/>
<path d="M12 17.0625H6C3.2625 17.0625 1.6875 15.4875 1.6875 12.75V6.375C1.6875 3.6375 3.2625 2.0625 6 2.0625H12C14.7375 2.0625 16.3125 3.6375 16.3125 6.375V12.75C16.3125 15.4875 14.7375 17.0625 12 17.0625ZM6 3.1875C3.855 3.1875 2.8125 4.23 2.8125 6.375V12.75C2.8125 14.895 3.855 15.9375 6 15.9375H12C14.145 15.9375 15.1875 14.895 15.1875 12.75V6.375C15.1875 4.23 14.145 3.1875 12 3.1875H6Z" fill="#292D32"/>
</svg>
