<svg width="192" height="88" viewBox="0 0 192 88" fill="none" xmlns="http://www.w3.org/2000/svg">
<path d="M27.1712 68.5165C23.495 59.3609 18.7783 47.708 18.7783 47.708V46.8758L10.1775 68.5165H27.1712ZM34.2459 86.8975C32.6507 82.3889 30.2231 76.0769 28.0035 70.5281H9.41442L2.61701 86.8975H0.605469L20.1656 39.5234H20.7898C20.7898 39.5234 21.7607 42.5753 22.5239 44.4481C28.5585 59.4997 37.3671 80.3083 40.2111 86.8975H34.2459Z" fill="white"/>
<path d="M79.124 66.6428H84.3956L84.4648 83.914C79.9565 85.7866 72.1184 87.5902 67.2631 87.5902C55.1942 87.5902 42.5703 79.7522 42.5703 64.2846C42.5703 51.1752 51.7262 39.7305 66.7083 39.7305C73.5057 39.7305 78.777 41.2562 84.1875 45.2794L82.5225 49.7186C78.2222 43.0598 73.3668 41.8805 67.8181 41.8805C54.7087 41.8805 48.4661 53.6723 48.4661 64.2846C48.4661 77.5328 57.2056 85.7171 68.9277 85.7171C72.0491 85.7171 75.7946 84.3995 79.124 82.8732V66.6428Z" fill="white"/>
<path d="M117.061 68.5146C113.385 59.3589 108.669 47.706 108.669 47.706V46.8739L100.068 68.5146H117.061ZM124.136 86.8956C122.541 82.3869 120.113 76.075 117.894 70.5262H99.3047L92.5075 86.8956H90.4961L110.056 39.5215H110.68C110.68 39.5215 111.651 42.5734 112.414 44.4461C118.449 59.4978 127.257 80.3063 130.101 86.8956H124.136Z" fill="white"/>
<path d="M137.738 86.8971C137.738 82.8049 137.946 47.4302 137.807 40.2168H142.94C142.94 53.534 143.01 73.6493 143.01 86.8971H137.738Z" fill="white"/>
<path d="M188.776 78.7118C188.776 74.6192 188.776 47.4294 188.635 40.2158H190.855C190.855 53.5333 190.579 74.4111 190.925 87.7286C185.931 82.2491 156.244 46.3891 156.244 46.3891L156.73 47.9149V86.8963H154.51C154.51 83.1509 154.58 53.8107 154.51 43.7535L154.094 40.2158H157.076C159.92 44.1002 188.29 77.5326 188.29 77.5326L188.776 78.7118Z" fill="white"/>
<path d="M189.249 9.30715C186.149 8.06496 180.722 7.15756 175.062 18.381C173.368 21.7413 171.541 24.7569 170.144 26.8168C166.895 31.7347 162.605 33.945 162.31 34.0856C162.302 34.0906 162.3 34.0929 162.297 34.0929C162.295 34.0953 162.292 34.0953 162.292 34.0953C160.218 35.0319 157.923 35.5486 155.511 35.5486C152.386 35.5486 149.655 34.8426 147.148 33.319C149.271 34.2822 155.475 35.2624 164.224 20.9092L166.747 17.1194C167.441 16.0762 168.093 15.0062 168.686 13.9048C170.073 11.3209 174.023 5.29912 180.673 5.32823C184.518 5.34521 186.771 6.91009 189.249 9.30715Z" fill="white"/>
<path d="M137.406 18.0366C137.406 8.62764 144.924 1 154.199 1C163.473 1 170.991 8.62764 170.991 18.0366C170.991 27.4455 163.473 35.0732 154.199 35.0732C144.924 35.0732 137.406 27.4455 137.406 18.0366Z" stroke="white" stroke-width="0.727853" stroke-miterlimit="10"/>
<path d="M191.406 16.037C191.406 21.7422 186.7 26.3669 180.896 26.3669C175.092 26.3669 170.387 21.7422 170.387 16.037C170.387 10.3318 175.092 5.70703 180.896 5.70703C186.7 5.70703 191.406 10.3318 191.406 16.037Z" stroke="white" stroke-width="0.727853" stroke-miterlimit="10"/>
<path d="M137.988 27.6272C137.988 28.94 139.053 30.0043 140.365 30.0043C141.678 30.0043 142.743 28.94 142.743 27.6272C142.743 26.3143 141.678 25.25 140.365 25.25C139.053 25.25 137.988 26.3143 137.988 27.6272Z" fill="white"/>
<path d="M27.1712 68.5165C23.495 59.3609 18.7783 47.708 18.7783 47.708V46.8758L10.1775 68.5165H27.1712ZM34.2459 86.8975C32.6507 82.3889 30.2231 76.0769 28.0035 70.5281H9.41442L2.61701 86.8975H0.605469L20.1656 39.5234H20.7898C20.7898 39.5234 21.7607 42.5753 22.5239 44.4481C28.5585 59.4997 37.3671 80.3083 40.2111 86.8975H34.2459Z" fill="white"/>
<path d="M79.124 66.6428H84.3956L84.4648 83.914C79.9565 85.7866 72.1184 87.5902 67.2631 87.5902C55.1942 87.5902 42.5703 79.7522 42.5703 64.2846C42.5703 51.1752 51.7262 39.7305 66.7083 39.7305C73.5057 39.7305 78.777 41.2562 84.1875 45.2794L82.5225 49.7186C78.2222 43.0598 73.3668 41.8805 67.8181 41.8805C54.7087 41.8805 48.4661 53.6723 48.4661 64.2846C48.4661 77.5328 57.2056 85.7171 68.9277 85.7171C72.0491 85.7171 75.7946 84.3995 79.124 82.8732V66.6428Z" fill="white"/>
<path d="M117.061 68.5146C113.385 59.3589 108.669 47.706 108.669 47.706V46.8739L100.068 68.5146H117.061ZM124.136 86.8956C122.541 82.3869 120.113 76.075 117.894 70.5262H99.3047L92.5075 86.8956H90.4961L110.056 39.5215H110.68C110.68 39.5215 111.651 42.5734 112.414 44.4461C118.449 59.4978 127.257 80.3063 130.101 86.8956H124.136Z" fill="white"/>
<path d="M137.738 86.8971C137.738 82.8049 137.946 47.4302 137.807 40.2168H142.94C142.94 53.534 143.01 73.6493 143.01 86.8971H137.738Z" fill="white"/>
<path d="M188.776 78.7118C188.776 74.6192 188.776 47.4294 188.635 40.2158H190.855C190.855 53.5333 190.579 74.4111 190.925 87.7286C185.931 82.2491 156.244 46.3891 156.244 46.3891L156.73 47.9149V86.8963H154.51C154.51 83.1509 154.58 53.8107 154.51 43.7535L154.094 40.2158H157.076C159.92 44.1002 188.29 77.5326 188.29 77.5326L188.776 78.7118Z" fill="white"/>
<path d="M189.249 9.30715C186.149 8.06496 180.722 7.15756 175.062 18.381C173.368 21.7413 171.541 24.7569 170.144 26.8168C166.895 31.7347 162.605 33.945 162.31 34.0856C162.302 34.0906 162.3 34.0929 162.297 34.0929C162.295 34.0953 162.292 34.0953 162.292 34.0953C160.218 35.0319 157.923 35.5486 155.511 35.5486C152.386 35.5486 149.655 34.8426 147.148 33.319C149.271 34.2822 155.475 35.2624 164.224 20.9092L166.747 17.1194C167.441 16.0762 168.093 15.0062 168.686 13.9048C170.073 11.3209 174.023 5.29912 180.673 5.32823C184.518 5.34521 186.771 6.91009 189.249 9.30715Z" fill="white"/>
<path d="M137.406 18.0366C137.406 8.62764 144.924 1 154.199 1C163.473 1 170.991 8.62764 170.991 18.0366C170.991 27.4455 163.473 35.0732 154.199 35.0732C144.924 35.0732 137.406 27.4455 137.406 18.0366Z" stroke="white" stroke-width="0.727853" stroke-miterlimit="10"/>
<path d="M191.406 16.037C191.406 21.7422 186.7 26.3669 180.896 26.3669C175.092 26.3669 170.387 21.7422 170.387 16.037C170.387 10.3318 175.092 5.70703 180.896 5.70703C186.7 5.70703 191.406 10.3318 191.406 16.037Z" stroke="white" stroke-width="0.727853" stroke-miterlimit="10"/>
<path d="M137.988 27.6272C137.988 28.94 139.053 30.0043 140.365 30.0043C141.678 30.0043 142.743 28.94 142.743 27.6272C142.743 26.3143 141.678 25.25 140.365 25.25C139.053 25.25 137.988 26.3143 137.988 27.6272Z" fill="white"/>
</svg>
