<svg width="73" height="34" viewBox="0 0 73 34" fill="none" xmlns="http://www.w3.org/2000/svg">
<path d="M10.0251 26.4787C8.63785 23.0237 6.85791 18.6262 6.85791 18.6262V18.3122L3.61219 26.4787H10.0251ZM12.6949 33.4152C12.0929 31.7138 11.1768 29.3318 10.3392 27.2379H3.32424L0.759097 33.4152H0L7.38143 15.5376H7.61696C7.61696 15.5376 7.98337 16.6893 8.27137 17.396C10.5487 23.0761 13.8728 30.9286 14.946 33.4152H12.6949Z" fill="white"/>
<path d="M29.6302 25.7717H31.6196L31.6457 32.2893C29.9444 32.996 26.9865 33.6766 25.1543 33.6766C20.5998 33.6766 15.8359 30.7187 15.8359 24.8817C15.8359 19.9346 19.2911 15.6157 24.9449 15.6157C27.51 15.6157 29.4993 16.1915 31.541 17.7097L30.9127 19.385C29.2899 16.8721 27.4577 16.4271 25.3637 16.4271C20.4166 16.4271 18.0608 20.877 18.0608 24.8817C18.0608 29.8812 21.3589 32.9697 25.7824 32.9697C26.9604 32.9697 28.3738 32.4725 29.6302 31.8965V25.7717Z" fill="white"/>
<path d="M43.9469 26.4783C42.5596 23.0232 40.7797 18.6257 40.7797 18.6257V18.3117L37.5341 26.4783H43.9469ZM46.6167 33.4147C46.0148 31.7133 45.0986 29.3313 44.261 27.2374H37.246L34.6809 33.4147H33.9219L41.3032 15.5371H41.5388C41.5388 15.5371 41.9052 16.6888 42.1932 17.3955C44.4704 23.0756 47.7945 30.9281 48.8678 33.4147H46.6167Z" fill="white"/>
<path d="M51.748 33.4151C51.748 31.8708 51.8265 18.5214 51.7741 15.7993H53.7111C53.7111 20.8248 53.7373 28.4158 53.7373 33.4151H51.748Z" fill="white"/>
<path d="M71.0117 30.3261C71.0117 28.7817 71.0117 18.521 70.9589 15.7988H71.7966C71.7966 20.8245 71.6922 28.7031 71.8227 33.7288C69.9385 31.661 58.7353 18.1284 58.7353 18.1284L58.9185 18.7042V33.4147H58.0809C58.0809 32.0013 58.1072 20.9291 58.0809 17.1339L57.9238 15.7988H59.0494C60.1226 17.2647 70.8284 29.8811 70.8284 29.8811L71.0117 30.3261Z" fill="white"/>
<path d="M71.1885 4.13487C70.0184 3.6661 67.9704 3.32368 65.8344 7.55909C65.1953 8.82714 64.5059 9.96517 63.9785 10.7425C62.7526 12.5984 61.1338 13.4325 61.0222 13.4856C61.0194 13.4874 61.0185 13.4883 61.0176 13.4883C61.0167 13.4892 61.0157 13.4892 61.0157 13.4892C60.2329 13.8426 59.3668 14.0376 58.4567 14.0376C57.2774 14.0376 56.2465 13.7712 55.3008 13.1963C56.1019 13.5597 58.443 13.9296 61.7445 8.51313L62.6967 7.083C62.9586 6.6893 63.2048 6.28554 63.4283 5.86987C63.9519 4.89479 65.4425 2.62235 67.9521 2.63334C69.4031 2.63975 70.2532 3.23029 71.1885 4.13487Z" fill="white"/>
<path d="M51.625 7.42911C51.625 3.87845 54.4621 1 57.962 1C61.4618 1 64.299 3.87845 64.299 7.42911C64.299 10.9798 61.4618 13.8582 57.962 13.8582C54.4621 13.8582 51.625 10.9798 51.625 7.42911Z" stroke="white" stroke-width="0.27467" stroke-miterlimit="10"/>
<path d="M72.0003 6.67458C72.0003 8.82755 70.2245 10.5728 68.0344 10.5728C65.844 10.5728 64.0684 8.82755 64.0684 6.67458C64.0684 4.52162 65.844 2.77637 68.0344 2.77637C70.2245 2.77637 72.0003 4.52162 72.0003 6.67458Z" stroke="white" stroke-width="0.27467" stroke-miterlimit="10"/>
<path d="M51.8438 11.0484C51.8438 11.5439 52.2454 11.9455 52.7408 11.9455C53.2363 11.9455 53.6379 11.5439 53.6379 11.0484C53.6379 10.553 53.2363 10.1514 52.7408 10.1514C52.2454 10.1514 51.8438 10.553 51.8438 11.0484Z" fill="white"/>
<path d="M10.0251 26.4787C8.63785 23.0237 6.85791 18.6262 6.85791 18.6262V18.3122L3.61219 26.4787H10.0251ZM12.6949 33.4152C12.0929 31.7138 11.1768 29.3318 10.3392 27.2379H3.32424L0.759097 33.4152H0L7.38143 15.5376H7.61696C7.61696 15.5376 7.98337 16.6893 8.27137 17.396C10.5487 23.0761 13.8728 30.9286 14.946 33.4152H12.6949Z" fill="white"/>
<path d="M29.6302 25.7717H31.6196L31.6457 32.2893C29.9444 32.996 26.9865 33.6766 25.1543 33.6766C20.5998 33.6766 15.8359 30.7187 15.8359 24.8817C15.8359 19.9346 19.2911 15.6157 24.9449 15.6157C27.51 15.6157 29.4993 16.1915 31.541 17.7097L30.9127 19.385C29.2899 16.8721 27.4577 16.4271 25.3637 16.4271C20.4166 16.4271 18.0608 20.877 18.0608 24.8817C18.0608 29.8812 21.3589 32.9697 25.7824 32.9697C26.9604 32.9697 28.3738 32.4725 29.6302 31.8965V25.7717Z" fill="white"/>
<path d="M43.9469 26.4783C42.5596 23.0232 40.7797 18.6257 40.7797 18.6257V18.3117L37.5341 26.4783H43.9469ZM46.6167 33.4147C46.0148 31.7133 45.0986 29.3313 44.261 27.2374H37.246L34.6809 33.4147H33.9219L41.3032 15.5371H41.5388C41.5388 15.5371 41.9052 16.6888 42.1932 17.3955C44.4704 23.0756 47.7945 30.9281 48.8678 33.4147H46.6167Z" fill="white"/>
<path d="M51.748 33.4151C51.748 31.8708 51.8265 18.5214 51.7741 15.7993H53.7111C53.7111 20.8248 53.7373 28.4158 53.7373 33.4151H51.748Z" fill="white"/>
<path d="M71.0117 30.3261C71.0117 28.7817 71.0117 18.521 70.9589 15.7988H71.7966C71.7966 20.8245 71.6922 28.7031 71.8227 33.7288C69.9385 31.661 58.7353 18.1284 58.7353 18.1284L58.9185 18.7042V33.4147H58.0809C58.0809 32.0013 58.1072 20.9291 58.0809 17.1339L57.9238 15.7988H59.0494C60.1226 17.2647 70.8284 29.8811 70.8284 29.8811L71.0117 30.3261Z" fill="white"/>
<path d="M71.1885 4.13487C70.0184 3.6661 67.9704 3.32368 65.8344 7.55909C65.1953 8.82714 64.5059 9.96517 63.9785 10.7425C62.7526 12.5984 61.1338 13.4325 61.0222 13.4856C61.0194 13.4874 61.0185 13.4883 61.0176 13.4883C61.0167 13.4892 61.0157 13.4892 61.0157 13.4892C60.2329 13.8426 59.3668 14.0376 58.4567 14.0376C57.2774 14.0376 56.2465 13.7712 55.3008 13.1963C56.1019 13.5597 58.443 13.9296 61.7445 8.51313L62.6967 7.083C62.9586 6.6893 63.2048 6.28554 63.4283 5.86987C63.9519 4.89479 65.4425 2.62235 67.9521 2.63334C69.4031 2.63975 70.2532 3.23029 71.1885 4.13487Z" fill="white"/>
<path d="M51.625 7.42911C51.625 3.87845 54.4621 1 57.962 1C61.4618 1 64.299 3.87845 64.299 7.42911C64.299 10.9798 61.4618 13.8582 57.962 13.8582C54.4621 13.8582 51.625 10.9798 51.625 7.42911Z" stroke="white" stroke-width="0.27467" stroke-miterlimit="10"/>
<path d="M72.0003 6.67458C72.0003 8.82755 70.2245 10.5728 68.0344 10.5728C65.844 10.5728 64.0684 8.82755 64.0684 6.67458C64.0684 4.52162 65.844 2.77637 68.0344 2.77637C70.2245 2.77637 72.0003 4.52162 72.0003 6.67458Z" stroke="white" stroke-width="0.27467" stroke-miterlimit="10"/>
<path d="M51.8438 11.0484C51.8438 11.5439 52.2454 11.9455 52.7408 11.9455C53.2363 11.9455 53.6379 11.5439 53.6379 11.0484C53.6379 10.553 53.2363 10.1514 52.7408 10.1514C52.2454 10.1514 51.8438 10.553 51.8438 11.0484Z" fill="white"/>
</svg>
