<svg width="19" height="19" viewBox="0 0 19 19" fill="none" xmlns="http://www.w3.org/2000/svg">
<path d="M7.24939 0.961742C6.13407 1.18763 5.21994 2.05941 4.91641 3.18531C4.82111 3.52767 4.80347 4.30415 4.88111 4.60768C4.90582 4.71004 4.91994 4.80533 4.90935 4.81592C4.89876 4.82651 4.83523 4.81592 4.7717 4.79121C4.70817 4.76651 4.42228 4.73827 4.12581 4.73121C3.6458 4.7171 3.56462 4.72415 3.25403 4.80533C2.25519 5.06298 1.454 5.77594 1.11164 6.7183C0.959876 7.13478 0.921052 7.43125 0.9387 7.95362C0.952817 8.34539 0.973994 8.45833 1.06929 8.74422C1.19635 9.12187 1.40106 9.50305 1.59871 9.736L1.73283 9.88776L1.56694 10.1031C1.12929 10.6678 0.931641 11.2572 0.931641 11.9913C0.931641 12.8596 1.22459 13.5866 1.81754 14.1761C2.20578 14.5643 2.70343 14.8502 3.24344 14.9949C3.5858 15.0867 4.39758 15.1008 4.69405 15.0196L4.87405 14.9702L4.82111 15.129C4.78229 15.2455 4.76464 15.4537 4.76464 15.8737C4.76111 16.5585 4.79641 16.7314 5.05759 17.2679C5.36818 17.8961 5.82348 18.3514 6.45526 18.6585C6.94938 18.902 7.22821 18.962 7.8141 18.9585C8.34352 18.955 8.61176 18.9055 9.03177 18.7291C9.30706 18.6161 9.67766 18.3938 9.8259 18.2526L9.91413 18.1714L10.1294 18.3408C10.9553 18.9797 12.0989 19.1561 13.0942 18.7961C14.0295 18.4608 14.7495 17.6632 15.0177 16.6679C15.0813 16.442 15.0954 16.2867 15.0954 15.8914C15.0954 15.602 15.0777 15.3337 15.053 15.242C15.0283 15.1608 15.0177 15.0831 15.0248 15.0725C15.0354 15.0655 15.1836 15.0831 15.353 15.1184C15.7836 15.1996 16.3307 15.1714 16.7578 15.0443C17.6684 14.7796 18.3107 14.2431 18.706 13.4208C18.946 12.9266 18.9849 12.736 18.9849 12.0796C18.9849 11.596 18.9743 11.476 18.9037 11.236C18.8049 10.8972 18.5896 10.4701 18.3813 10.2019C18.2966 10.0925 18.226 9.99365 18.226 9.97953C18.226 9.96541 18.3001 9.86306 18.3884 9.74658C18.7837 9.24187 18.9637 8.71245 18.9919 7.99597C19.0096 7.57596 19.0025 7.46302 18.9319 7.16654C18.7025 6.16771 17.9225 5.29593 16.966 4.96416C16.4578 4.78768 15.8366 4.7418 15.353 4.84416C15.2189 4.87239 15.1024 4.89004 15.0919 4.88298C15.0848 4.87239 15.106 4.74533 15.1377 4.59709C15.1836 4.38885 15.1942 4.22297 15.1801 3.86296C15.1624 3.33354 15.1095 3.1006 14.9083 2.68412C14.7107 2.26764 14.5307 2.01705 14.213 1.71705C13.7648 1.29704 13.2212 1.03233 12.6354 0.940567C12.2789 0.884094 11.5977 0.91939 11.273 1.01468C10.9341 1.10998 10.4824 1.32881 10.2635 1.50175C10.1683 1.57587 10.073 1.64646 10.0483 1.66058C10.0235 1.6747 9.92825 1.62528 9.81884 1.54411C9.44824 1.26528 8.90823 1.0288 8.43529 0.947624C8.15293 0.894684 7.53174 0.905272 7.24939 0.961742ZM8.61176 1.74175C9.02118 1.87234 9.2753 2.02411 9.57883 2.31C9.96002 2.67 10.0659 2.67 10.4294 2.32059C11.1 1.67822 12.0777 1.4594 12.9248 1.75587C13.5707 1.98529 14.146 2.57824 14.3683 3.25237C14.4495 3.4959 14.4636 3.59825 14.4636 3.94414C14.4636 4.41003 14.386 4.75592 14.1848 5.20063C14.0471 5.50417 14.0401 5.56064 14.1142 5.70887C14.2201 5.91711 14.4071 5.93829 14.7636 5.78299C15.5648 5.43005 16.2742 5.42652 16.9695 5.77241C17.4848 6.02653 17.8166 6.3583 18.0566 6.85595C18.2401 7.24066 18.3072 7.57949 18.286 8.00303C18.2507 8.61716 18.0284 9.10422 17.5766 9.56658C17.2378 9.90894 17.2342 10.0431 17.5625 10.3784C18.0354 10.8654 18.2507 11.3348 18.286 11.9596C18.3637 13.2831 17.2837 14.4584 15.9778 14.462C15.5895 14.462 15.1907 14.3631 14.6754 14.1372C14.4777 14.0525 14.393 14.0349 14.2977 14.0525C14.0295 14.1019 13.9518 14.3878 14.1142 14.7125C14.3471 15.1678 14.4495 15.8984 14.3471 16.3855C14.2871 16.6679 14.033 17.1902 13.846 17.4091C13.5177 17.7938 13.0836 18.0726 12.6318 18.1855C12.1342 18.3126 11.4318 18.2314 10.9518 17.9879C10.7083 17.8679 10.3024 17.5644 10.2494 17.462C10.2 17.3667 9.97413 17.2749 9.85413 17.2996C9.78707 17.3138 9.63883 17.4232 9.46589 17.5855C8.99647 18.0267 8.45999 18.242 7.8141 18.242C7.35174 18.242 7.1788 18.2032 6.75879 17.9985C6.12702 17.6949 5.6576 17.0879 5.49877 16.382C5.38936 15.8808 5.47759 15.2737 5.75642 14.6631C5.89407 14.3525 5.89407 14.2114 5.75642 14.0808C5.61524 13.9502 5.52348 13.9537 5.14229 14.1055C4.61287 14.3208 4.37287 14.3667 3.91404 14.3455C3.27521 14.3172 2.78814 14.0949 2.32578 13.6325C1.83518 13.1455 1.61283 12.5631 1.64812 11.8854C1.67989 11.2819 1.89518 10.8019 2.35049 10.3148C2.59049 10.0572 2.60814 10.0289 2.60461 9.88776C2.60108 9.74658 2.5799 9.71129 2.3399 9.45717C2.03989 9.13952 1.88107 8.89245 1.75401 8.52539C1.67283 8.2995 1.65871 8.21127 1.65871 7.80891C1.65871 7.40302 1.6693 7.31831 1.75401 7.06419C1.87048 6.7183 2.1246 6.31947 2.38225 6.07947C3.16226 5.35593 4.17169 5.2324 5.24818 5.73005C5.50583 5.85005 5.53406 5.85711 5.66113 5.81829C5.91878 5.74064 5.97525 5.51828 5.82348 5.1724C5.34347 4.08532 5.48465 3.07942 6.22584 2.32059C6.57173 1.96764 7.00585 1.73823 7.48939 1.64999C7.77528 1.59705 8.30117 1.6394 8.61176 1.74175Z" fill="#997447"/>
<path d="M9.49121 6.50661C8.86649 6.64073 8.27354 7.10661 7.99824 7.68545C7.82883 8.04545 7.77941 8.26075 7.77941 8.66664C7.77941 9.28782 7.98412 9.7643 8.44295 10.2231L8.73943 10.5196L8.18883 11.9173C7.88883 12.6867 7.63118 13.3432 7.61706 13.3749C7.59588 13.4349 7.72294 13.4385 9.96768 13.4385C12.2124 13.4385 12.3395 13.4349 12.3183 13.3749C12.3042 13.3432 12.0465 12.6867 11.7465 11.9173L11.1959 10.5196L11.4924 10.2231C11.9512 9.7643 12.156 9.28782 12.156 8.66664C12.156 8.26075 12.1065 8.04545 11.9371 7.68545C11.7465 7.28662 11.3477 6.88073 10.9559 6.69014C10.4936 6.46425 9.99239 6.40072 9.49121 6.50661Z" fill="#997447"/>
</svg>
