<svg width="9" height="17" viewBox="0 0 9 17" fill="none" xmlns="http://www.w3.org/2000/svg">
<path d="M0.851988 0.0595303C0.777901 0.140352 0.589316 0.635388 0.457981 1.09338C-0.0909354 3.00617 -0.0639948 4.95263 0.5287 6.68694C0.885664 7.73089 1.46489 8.7479 2.16198 9.55275L2.34046 9.76154L2.34719 12.0279L2.3573 14.2977L2.44822 14.5671C2.71763 15.3517 3.32716 15.9175 4.12528 16.1195C4.4351 16.197 5.10188 16.1734 5.40496 16.069C6.1492 15.8131 6.72842 15.1867 6.92037 14.429C6.98436 14.1865 6.98773 14.0485 6.98773 12.4455V10.7213L7.1258 10.4216C7.7387 9.09813 8.23036 7.42107 8.46609 5.86188C8.73213 4.1141 8.7254 2.29224 8.44926 0.517523C8.3819 0.106678 8.31792 0.0022831 8.12597 0.0022831C8.00137 0.00564957 7.52991 0.318835 6.93048 0.797032C6.36135 1.25502 5.31404 2.31581 4.98065 2.77717L4.91329 2.87146L4.73481 2.6492C3.9569 1.65913 2.9803 0.874486 1.80501 0.295262C1.19211 -0.00445366 0.963118 -0.0617027 0.851988 0.0595303ZM2.02054 1.06307C2.68395 1.44698 3.21266 1.85445 3.72454 2.3798C4.03099 2.69635 4.42163 3.16444 4.49908 3.30588C4.52939 3.36313 4.50245 3.42375 4.33407 3.68305C3.37094 5.17152 2.71426 6.92603 2.46506 8.67381L2.42465 8.97689L2.18218 8.64013C0.602787 6.41753 0.215515 3.68979 1.10119 0.975514L1.20558 0.652225L1.44468 0.759989C1.57602 0.820605 1.83532 0.955309 2.02054 1.06307ZM7.9778 1.33248C8.26067 3.83796 7.9879 6.34681 7.17631 8.71085C7.07528 9.0072 6.90354 9.45172 6.79914 9.70092C6.69475 9.95012 6.59372 10.196 6.57351 10.2465L6.53647 10.3408H4.72134H2.90285L2.92642 9.89288C3.05102 7.56924 3.8323 5.3298 5.15913 3.51467C5.5666 2.95565 5.89326 2.57512 6.39503 2.07335C6.99783 1.47392 7.84309 0.773458 7.89697 0.834075C7.91381 0.847546 7.94749 1.07317 7.9778 1.33248ZM6.41524 12.5028C6.41524 14.227 6.41187 14.2674 6.22665 14.6479C6.11215 14.8836 5.71815 15.2844 5.48915 15.3989C5.07831 15.6077 4.56643 15.6548 4.14885 15.5268C3.73127 15.3989 3.33726 15.0655 3.12174 14.6614C2.92305 14.2876 2.91295 14.1899 2.91295 12.4724V10.9166H4.66409L6.41524 10.9133V12.5028Z" fill="#997447"/>
</svg>
