<svg width="18" height="17" viewBox="0 0 18 17" fill="none" xmlns="http://www.w3.org/2000/svg">
<path d="M6.65352 0.479779L6.66293 0.95962L6.86678 0.981573C7.59439 1.05371 8.24045 1.62136 8.45371 2.37092C8.49762 2.52773 8.51016 2.75353 8.51957 3.69126L8.53525 4.82343L8.25926 4.77639C7.87037 4.71367 6.95146 4.74189 6.58139 4.82971C5.98237 4.9677 5.45235 5.19351 4.95056 5.52595C4.5554 5.78939 3.93442 6.41036 3.67098 6.80552C3.20369 7.51431 2.93711 8.28582 2.8932 9.073L2.87438 9.44308H1.92098H0.970703V9.91351V10.3839H1.95547H2.94338L2.97788 10.5627C3.32914 12.366 4.27314 14.1474 5.40217 15.1479C6.11096 15.7751 6.80092 16.0605 7.59752 16.0605C8.0115 16.0605 8.3408 15.9915 8.73597 15.8221L8.99941 15.7092L9.26285 15.8221C10.0751 16.1703 10.9407 16.1452 11.7279 15.7469C13.2176 14.9942 14.5693 12.8647 15.0209 10.5627L15.0554 10.3839H16.0433H17.0281V9.91351V9.44308H16.0778H15.1244L15.1056 9.073C15.0617 8.28582 14.7951 7.51431 14.3278 6.80552C14.0644 6.41036 13.4434 5.78939 13.0483 5.52595C12.5465 5.19351 12.0164 4.9677 11.4174 4.82971C10.9439 4.71994 9.79287 4.7168 9.51375 4.82343C9.47611 4.83598 9.46984 4.7513 9.46984 4.30596V3.77594L10.0124 3.75712C10.4766 3.74458 10.5926 3.73203 10.8341 3.6599C11.7561 3.38705 12.4775 2.79117 12.8883 1.96321C13.1455 1.44887 13.2082 1.18229 13.227 0.542503L13.2396 -6.10352e-05L12.2266 0.00934792C11.2293 0.0218925 11.2042 0.0250282 10.9282 0.10657C10.2225 0.316696 9.63606 0.721268 9.16563 1.31401L9.10604 1.38928L8.99 1.21993C8.83946 1.00039 8.5572 0.708723 8.3408 0.54564C7.93937 0.244563 7.27449 0.00307465 6.84483 0.00307465H6.64411L6.65352 0.479779ZM12.2109 1.02862C12.1764 1.17602 12.0133 1.5555 11.9192 1.69977C11.684 2.06984 11.3171 2.39601 10.9282 2.57791C10.5989 2.72844 10.348 2.78803 9.8995 2.81312L9.52943 2.83508L9.55138 2.74413C9.58588 2.59359 9.74896 2.21724 9.84305 2.06984C10.0563 1.73426 10.4233 1.39242 10.7557 1.2262C11.1289 1.03802 11.4864 0.95962 12.0353 0.947075L12.2297 0.943939L12.2109 1.02862ZM8.24985 5.77684C8.41607 5.81134 8.65443 5.87093 8.77674 5.91484L8.99941 5.99011L9.27226 5.89602C10.0563 5.63258 10.9156 5.64512 11.7028 5.93052C12.7033 6.29746 13.5563 7.15051 13.9233 8.15096C14.0424 8.48026 14.1428 8.97265 14.1428 9.23609V9.44308H12.8664H11.5868L11.3453 9.68457C11.2104 9.81629 11.0975 9.91978 11.0913 9.91037C11.085 9.9041 10.8498 9.20473 10.5675 8.36108C10.2884 7.51431 10.05 6.81493 10.0375 6.80239C10.025 6.78984 9.60156 7.61153 9.0935 8.62766C8.58543 9.64693 8.16204 10.478 8.15263 10.478C8.14322 10.478 7.96132 9.95114 7.74806 9.30822C7.5348 8.66843 7.34976 8.129 7.33408 8.11019C7.31526 8.09137 7.04555 8.33913 6.62216 8.76252L5.9416 9.44308H4.89411H3.84661L3.86543 9.13573C3.9407 7.82793 4.84079 6.56717 6.08587 6.01833C6.4434 5.86152 6.90128 5.74548 7.27449 5.71726C7.66652 5.68903 7.88605 5.70158 8.24985 5.77684ZM10.2508 10.5157C10.464 11.1586 10.6491 11.698 10.6647 11.7168C10.6836 11.7357 10.9533 11.4879 11.3767 11.0645L12.0572 10.3839H13.0545C13.8292 10.3839 14.0487 10.3934 14.0487 10.4216C14.0487 10.5094 13.8888 11.1053 13.7884 11.4032C13.3901 12.5636 12.8664 13.47 12.1858 14.1725C11.5711 14.806 11.0223 15.0883 10.4013 15.0883C9.97791 15.0883 9.67056 14.9722 9.07154 14.5865C9.00882 14.5457 8.99 14.5457 8.93041 14.5865C8.32826 14.9722 8.02091 15.0883 7.59752 15.0883C6.97655 15.0883 6.43399 14.8123 5.81302 14.1725C5.14187 13.4825 4.60557 12.5605 4.21041 11.4032C4.10064 11.077 3.95011 10.5188 3.95011 10.4341C3.95011 10.3902 4.08496 10.3839 5.1795 10.3839H6.41203L6.65352 10.1425C6.78838 10.0107 6.90128 9.90724 6.90756 9.91665C6.91383 9.92292 7.14904 10.6192 7.4313 11.4659C7.71043 12.3096 7.94878 13.0121 7.96132 13.0246C7.97387 13.0372 8.39726 12.2155 8.90532 11.1994C9.41339 10.1801 9.83678 9.34899 9.84619 9.34899C9.8556 9.34899 10.0375 9.87588 10.2508 10.5157Z" fill="#997447"/>
</svg>
